<?xml version="1.0" encoding="utf-8"?>
<svg viewBox="0 0 500 500" xmlns="http://www.w3.org/2000/svg">
  <g transform="matrix(1, 0, 0, 1, 454.7301025390625, -640.604248046875)">
    <g id="_584993664">
      <g>
        <path class="st0" d="M -313.223 842.518 L -337.021 818.721 L -358.098 797.644 L -380.536 820.081 C -386.652 826.197 -390.056 834.358 -390.056 842.518 C -390.056 850.679 -386.66 858.831 -380.536 864.956 L -358.098 887.393 L -341.785 870.396 L -309.835 903.03 L -342.469 934.98 L -358.106 951.293 L -374.419 934.98 L -412.486 896.906 C -427.439 881.953 -434.923 862.236 -434.923 842.518 C -434.923 822.801 -427.446 803.092 -412.486 788.131 L -374.419 749.381 L -358.106 733.067 L -342.469 749.381 L -314.599 777.25 L -265.652 826.197 L -249.339 842.511 L -265.652 858.148 L -281.289 874.461 L -313.223 842.518 Z" style="fill: rgb(29, 161, 219);"/>
        <path class="st0" d="M -159.582 842.518 L -175.895 826.205 L -204.449 797.652 L -220.762 813.965 L -252.712 782.015 L -220.762 749.381 L -204.449 733.067 L -188.812 749.381 L -150.061 788.131 L -111.987 826.205 L -95.674 842.518 L -111.987 858.155 L -127.624 874.468 L -159.582 842.518 Z M -249.315 842.518 L -233.002 858.831 L -264.952 890.782 L -297.586 858.148 L -313.223 842.511 L -297.586 826.197 L -281.273 809.884 L -249.315 842.518 Z M -204.449 887.385 L -190.856 873.792 L -188.136 870.396 L -156.185 903.03 L -158.222 904.39 L -188.812 934.98 L -204.449 951.293 L -220.762 934.98 L -236.399 919.343 L -204.449 887.385 Z" style="fill: rgb(29, 161, 219);"/>
        <path class="st0" d="M -143.945 826.197 L -127.632 809.884 L -95.682 842.518 L -69.848 868.352 L -50.815 887.385 L -28.377 864.948 C -22.261 858.831 -19.541 850.671 -19.541 842.511 C -19.541 834.35 -22.261 826.197 -28.377 820.073 L -50.815 797.636 L -67.128 813.949 L -99.078 781.999 L -67.128 749.365 L -50.815 733.052 L -34.502 749.365 L 3.573 788.115 C 18.526 803.068 26.01 822.785 26.01 842.503 C 26.01 862.22 18.534 881.929 3.573 896.89 L -34.502 934.964 L -50.815 951.278 L -67.128 934.964 L -94.998 906.411 L -143.945 858.14 L -159.582 842.503 L -143.945 826.197 Z" style="fill: rgb(29, 161, 219);"/>
        <path class="st0" d="M -188.812 903.022 L -172.499 919.335 L -204.449 951.285 L -238.443 985.279 L -249.323 996.16 L -226.886 1018.597 C -220.77 1024.714 -212.609 1027.434 -204.449 1027.434 C -196.288 1027.434 -188.136 1024.714 -182.011 1018.597 L -159.574 996.16 L -175.887 979.847 L -143.937 947.213 L -111.987 979.847 L -95.674 996.16 L -111.987 1011.797 L -150.061 1050.548 C -165.014 1065.501 -184.731 1072.985 -204.449 1072.985 C -224.166 1072.985 -243.875 1065.508 -258.836 1050.548 L -297.586 1011.797 L -313.223 996.16 L -297.586 979.847 L -271.753 954.013 L -220.77 903.03 L -204.456 887.393 L -188.812 903.022 Z" style="fill: rgb(29, 161, 219);"/>
      </g>
    </g>
  </g>
</svg>